<?xml version="1.0" encoding="UTF-8" standalone="no"?>
<!DOCTYPE svg PUBLIC "-//W3C//DTD SVG 1.1//EN" "http://www.w3.org/Graphics/SVG/1.1/DTD/svg11.dtd">
<svg width="100%" height="100%" viewBox="0 0 2458 2458" version="1.1" xmlns="http://www.w3.org/2000/svg" xmlns:xlink="http://www.w3.org/1999/xlink" xml:space="preserve" xmlns:serif="http://www.serif.com/" style="fill-rule:evenodd;clip-rule:evenodd;stroke-linecap:round;stroke-linejoin:round;stroke-miterlimit:1.5;">
    <g transform="matrix(1,0,0,1,-525.203159,-11.423632)">
        <g transform="matrix(1,0,0,1,427.665976,567.635992)">
            <g transform="matrix(0.86295,0,0,0.762423,-134.1242,-42.286681)">
                <rect x="1096.953" y="676.418" width="369.543" height="867.521" style="fill:none;stroke:rgb(0,255,0);stroke-width:5.12px;"/>
            </g>
            <g transform="matrix(0.698331,0,0,0.698331,285.837268,417.347924)">
                <circle cx="982.489" cy="959.796" r="33.826" style="fill:none;stroke:rgb(255,0,0);stroke-width:5.97px;"/>
            </g>
            <g transform="matrix(0.698331,0,0,0.698331,285.837268,-149.58121)">
                <circle cx="982.489" cy="959.796" r="33.826" style="fill:none;stroke:rgb(255,0,0);stroke-width:5.97px;"/>
            </g>
        </g>
        <g transform="matrix(1,0,0,1,1136.327393,567.635992)">
            <g transform="matrix(0.86295,0,0,0.762423,-134.1242,-42.286681)">
                <rect x="1096.953" y="676.418" width="369.543" height="867.521" style="fill:none;stroke:rgb(0,255,0);stroke-width:5.12px;"/>
            </g>
            <g transform="matrix(0.698331,0,0,0.698331,285.837268,417.347924)">
                <circle cx="982.489" cy="959.796" r="33.826" style="fill:none;stroke:rgb(255,0,0);stroke-width:5.97px;"/>
            </g>
            <g transform="matrix(0.698331,0,0,0.698331,285.837268,-149.58121)">
                <circle cx="982.489" cy="959.796" r="33.826" style="fill:none;stroke:rgb(255,0,0);stroke-width:5.97px;"/>
            </g>
        </g>
        <g transform="matrix(0,-1,1,0,-119.655225,3170.275779)">
            <g transform="matrix(-1.142857,-0,0,-1.417543,3322.972056,5535.815796)">
                <path d="M1373.031,3323.856C1373.031,3369.842 1326.724,3407.176 1269.685,3407.176L1166.339,3407.176C1109.3,3407.176 1062.992,3369.842 1062.992,3323.856C1062.992,3277.87 1109.3,3240.535 1166.339,3240.535L1269.685,3240.535C1326.724,3240.535 1373.031,3277.87 1373.031,3323.856Z" style="fill:none;stroke:rgb(0,255,0);stroke-width:3.24px;"/>
            </g>
            <g transform="matrix(-1.424752,-0,0,-1.424752,3698.232165,5609.343714)">
                <circle cx="1240.998" cy="3358.646" r="53.884" style="fill:none;stroke:rgb(255,0,0);stroke-width:2.92px;"/>
            </g>
            <g transform="matrix(-1.885988,-0,0,-1.885988,4146.666812,7158.471968)">
                <circle cx="1107.283" cy="3358.646" r="12.525" style="fill:none;stroke:rgb(255,0,0);stroke-width:2.21px;"/>
            </g>
            <g transform="matrix(-1.885988,-0,0,-1.885988,3891.896694,7158.471968)">
                <circle cx="1107.283" cy="3358.646" r="12.525" style="fill:none;stroke:rgb(255,0,0);stroke-width:2.21px;"/>
            </g>
        </g>
        <g transform="matrix(-0.737356,-0.737356,0.737356,-0.737356,1830.957867,4009.44191)">
            <g transform="matrix(-1.142857,-0,0,-1.417543,3322.972056,5535.815796)">
                <path d="M1373.031,3323.856C1373.031,3369.842 1326.724,3407.176 1269.685,3407.176L1166.339,3407.176C1109.3,3407.176 1062.992,3369.842 1062.992,3323.856C1062.992,3277.87 1109.3,3240.535 1166.339,3240.535L1269.685,3240.535C1326.724,3240.535 1373.031,3277.87 1373.031,3323.856Z" style="fill:none;stroke:rgb(0,255,0);stroke-width:3.1px;"/>
            </g>
            <g transform="matrix(-1.424752,-0,0,-1.424752,3698.232165,5609.343714)">
                <circle cx="1240.998" cy="3358.646" r="53.884" style="fill:none;stroke:rgb(255,0,0);stroke-width:2.8px;"/>
            </g>
            <g transform="matrix(-1.885988,-0,0,-1.885988,4146.666812,7158.471968)">
                <circle cx="1107.283" cy="3358.646" r="12.525" style="fill:none;stroke:rgb(255,0,0);stroke-width:2.12px;"/>
            </g>
            <g transform="matrix(-1.885988,-0,0,-1.885988,3891.896694,7158.471968)">
                <circle cx="1107.283" cy="3358.646" r="12.525" style="fill:none;stroke:rgb(255,0,0);stroke-width:2.12px;"/>
            </g>
        </g>
        <g transform="matrix(0.737356,-0.737356,-0.737356,-0.737356,1677.337907,4009.44191)">
            <g transform="matrix(-1.142857,-0,0,-1.417543,3322.972056,5535.815796)">
                <path d="M1373.031,3323.856C1373.031,3369.842 1326.724,3407.176 1269.685,3407.176L1166.339,3407.176C1109.3,3407.176 1062.992,3369.842 1062.992,3323.856C1062.992,3277.87 1109.3,3240.535 1166.339,3240.535L1269.685,3240.535C1326.724,3240.535 1373.031,3277.87 1373.031,3323.856Z" style="fill:none;stroke:rgb(0,255,0);stroke-width:3.1px;"/>
            </g>
            <g transform="matrix(-1.424752,-0,0,-1.424752,3698.232165,5609.343714)">
                <circle cx="1240.998" cy="3358.646" r="53.884" style="fill:none;stroke:rgb(255,0,0);stroke-width:2.8px;"/>
            </g>
            <g transform="matrix(-1.885988,-0,0,-1.885988,4146.666812,7158.471968)">
                <circle cx="1107.283" cy="3358.646" r="12.525" style="fill:none;stroke:rgb(255,0,0);stroke-width:2.12px;"/>
            </g>
            <g transform="matrix(-1.885988,-0,0,-1.885988,3891.896694,7158.471968)">
                <circle cx="1107.283" cy="3358.646" r="12.525" style="fill:none;stroke:rgb(255,0,0);stroke-width:2.12px;"/>
            </g>
        </g>
        <g transform="matrix(-0.737356,0.737356,0.737356,0.737356,1830.957867,-1529.846141)">
            <g transform="matrix(-1.142857,-0,0,-1.417543,3322.972056,5535.815796)">
                <path d="M1373.031,3323.856C1373.031,3369.842 1326.724,3407.176 1269.685,3407.176L1166.339,3407.176C1109.3,3407.176 1062.992,3369.842 1062.992,3323.856C1062.992,3277.87 1109.3,3240.535 1166.339,3240.535L1269.685,3240.535C1326.724,3240.535 1373.031,3277.87 1373.031,3323.856Z" style="fill:none;stroke:rgb(0,255,0);stroke-width:3.1px;"/>
            </g>
            <g transform="matrix(-1.424752,-0,0,-1.424752,3698.232165,5609.343714)">
                <circle cx="1240.998" cy="3358.646" r="53.884" style="fill:none;stroke:rgb(255,0,0);stroke-width:2.8px;"/>
            </g>
            <g transform="matrix(-1.885988,-0,0,-1.885988,4146.666812,7158.471968)">
                <circle cx="1107.283" cy="3358.646" r="12.525" style="fill:none;stroke:rgb(255,0,0);stroke-width:2.12px;"/>
            </g>
            <g transform="matrix(-1.885988,-0,0,-1.885988,3891.896694,7158.471968)">
                <circle cx="1107.283" cy="3358.646" r="12.525" style="fill:none;stroke:rgb(255,0,0);stroke-width:2.12px;"/>
            </g>
        </g>
        <g transform="matrix(0.737356,0.737356,-0.737356,0.737356,1677.337907,-1529.846141)">
            <g transform="matrix(-1.142857,-0,0,-1.417543,3322.972056,5535.815796)">
                <path d="M1373.031,3323.856C1373.031,3369.842 1326.724,3407.176 1269.685,3407.176L1166.339,3407.176C1109.3,3407.176 1062.992,3369.842 1062.992,3323.856C1062.992,3277.87 1109.3,3240.535 1166.339,3240.535L1269.685,3240.535C1326.724,3240.535 1373.031,3277.87 1373.031,3323.856Z" style="fill:none;stroke:rgb(0,255,0);stroke-width:3.1px;"/>
            </g>
            <g transform="matrix(-1.424752,-0,0,-1.424752,3698.232165,5609.343714)">
                <circle cx="1240.998" cy="3358.646" r="53.884" style="fill:none;stroke:rgb(255,0,0);stroke-width:2.8px;"/>
            </g>
            <g transform="matrix(-1.885988,-0,0,-1.885988,4146.666812,7158.471968)">
                <circle cx="1107.283" cy="3358.646" r="12.525" style="fill:none;stroke:rgb(255,0,0);stroke-width:2.12px;"/>
            </g>
            <g transform="matrix(-1.885988,-0,0,-1.885988,3891.896694,7158.471968)">
                <circle cx="1107.283" cy="3358.646" r="12.525" style="fill:none;stroke:rgb(255,0,0);stroke-width:2.12px;"/>
            </g>
        </g>
        <g transform="matrix(0,-1,1,0,1979.315097,3170.275779)">
            <g transform="matrix(-1.142857,-0,0,-1.417543,3322.972056,5535.815796)">
                <path d="M1373.031,3323.856C1373.031,3369.842 1326.724,3407.176 1269.685,3407.176L1166.339,3407.176C1109.3,3407.176 1062.992,3369.842 1062.992,3323.856C1062.992,3277.87 1109.3,3240.535 1166.339,3240.535L1269.685,3240.535C1326.724,3240.535 1373.031,3277.87 1373.031,3323.856Z" style="fill:none;stroke:rgb(0,255,0);stroke-width:3.24px;"/>
            </g>
            <g transform="matrix(-1.424752,-0,0,-1.424752,3698.232165,5609.343714)">
                <circle cx="1240.998" cy="3358.646" r="53.884" style="fill:none;stroke:rgb(255,0,0);stroke-width:2.92px;"/>
            </g>
            <g transform="matrix(-1.885988,-0,0,-1.885988,4146.666812,7158.471968)">
                <circle cx="1107.283" cy="3358.646" r="12.525" style="fill:none;stroke:rgb(255,0,0);stroke-width:2.21px;"/>
            </g>
            <g transform="matrix(-1.885988,-0,0,-1.885988,3891.896694,7158.471968)">
                <circle cx="1107.283" cy="3358.646" r="12.525" style="fill:none;stroke:rgb(255,0,0);stroke-width:2.21px;"/>
            </g>
        </g>
        <g transform="matrix(0,-1,1,0,929.829936,3171.116038)">
            <g transform="matrix(-1.142857,-0,0,-1.417543,3322.972056,5535.815796)">
                <path d="M1373.031,3323.856C1373.031,3369.842 1326.724,3407.176 1269.685,3407.176L1166.339,3407.176C1109.3,3407.176 1062.992,3369.842 1062.992,3323.856C1062.992,3277.87 1109.3,3240.535 1166.339,3240.535L1269.685,3240.535C1326.724,3240.535 1373.031,3277.87 1373.031,3323.856Z" style="fill:none;stroke:rgb(0,255,0);stroke-width:3.24px;"/>
            </g>
            <g transform="matrix(-1.424752,-0,0,-1.424752,3698.232165,5609.343714)">
                <circle cx="1240.998" cy="3358.646" r="53.884" style="fill:none;stroke:rgb(255,0,0);stroke-width:2.92px;"/>
            </g>
            <g transform="matrix(-1.885988,-0,0,-1.885988,4146.666812,7158.471968)">
                <circle cx="1107.283" cy="3358.646" r="12.525" style="fill:none;stroke:rgb(255,0,0);stroke-width:2.21px;"/>
            </g>
            <g transform="matrix(-1.885988,-0,0,-1.885988,3891.896694,7158.471968)">
                <circle cx="1107.283" cy="3358.646" r="12.525" style="fill:none;stroke:rgb(255,0,0);stroke-width:2.21px;"/>
            </g>
        </g>
        <g transform="matrix(-1,-0,0,-1,3684.895566,1014.779391)">
            <g transform="matrix(-1.142857,-0,0,-1.417543,3322.972056,5535.815796)">
                <path d="M1373.031,3323.856C1373.031,3369.842 1326.724,3407.176 1269.685,3407.176L1166.339,3407.176C1109.3,3407.176 1062.992,3369.842 1062.992,3323.856C1062.992,3277.87 1109.3,3240.535 1166.339,3240.535L1269.685,3240.535C1326.724,3240.535 1373.031,3277.87 1373.031,3323.856Z" style="fill:none;stroke:rgb(0,255,0);stroke-width:3.24px;"/>
            </g>
            <g transform="matrix(-1.424752,-0,0,-1.424752,3698.232165,5609.343714)">
                <circle cx="1240.998" cy="3358.646" r="53.884" style="fill:none;stroke:rgb(255,0,0);stroke-width:2.92px;"/>
            </g>
            <g transform="matrix(-1.885988,-0,0,-1.885988,4146.666812,7158.471968)">
                <circle cx="1107.283" cy="3358.646" r="12.525" style="fill:none;stroke:rgb(255,0,0);stroke-width:2.21px;"/>
            </g>
            <g transform="matrix(-1.885988,-0,0,-1.885988,3891.896694,7158.471968)">
                <circle cx="1107.283" cy="3358.646" r="12.525" style="fill:none;stroke:rgb(255,0,0);stroke-width:2.21px;"/>
            </g>
        </g>
        <g transform="matrix(1,0,0,1,0,-17.716535)">
            <g transform="matrix(0,0.698331,-0.698331,0,2424.192341,845.120445)">
                <circle cx="982.489" cy="959.796" r="33.826" style="fill:none;stroke:rgb(255,0,0);stroke-width:5.97px;"/>
            </g>
            <g transform="matrix(0,-0.698331,0.698331,0,1083.681675,2507.529745)">
                <circle cx="982.489" cy="959.796" r="33.826" style="fill:none;stroke:rgb(255,0,0);stroke-width:5.97px;"/>
            </g>
            <path d="M1683.071,1788.53L1588.794,1788.53L1588.794,1564.12L1683.071,1564.12C1683.071,1525.008 1714.825,1493.254 1753.937,1493.254C1793.049,1493.254 1824.803,1525.008 1824.803,1564.12L1919.502,1564.12L1919.502,1788.53L1824.803,1788.53C1824.803,1827.642 1793.049,1859.396 1753.937,1859.396C1714.825,1859.396 1683.071,1827.642 1683.071,1788.53Z" style="fill:none;stroke:rgb(0,255,0);stroke-width:4.17px;"/>
        </g>
        <g transform="matrix(1,0,0,1,-49.636491,-1021.889626)">
            <g transform="matrix(1.060976,0,0,1.475233,212.110084,48.740406)">
                <rect x="1015.748" y="909" width="968.504" height="416.323" style="fill:none;stroke:rgb(0,255,0);stroke-width:3.24px;"/>
            </g>
            <g transform="matrix(-2.810992,-0,0,-2.810992,4356.362529,7595.992801)">
                <circle cx="1061.508" cy="2098.611" r="8.403" style="fill:none;stroke:rgb(255,0,0);stroke-width:1.48px;"/>
            </g>
            <g transform="matrix(2.810992,0,-0,2.810992,-749.215532,-4202.364974)">
                <circle cx="1061.508" cy="2098.611" r="8.403" style="fill:none;stroke:rgb(255,0,0);stroke-width:1.48px;"/>
            </g>
        </g>
        <g transform="matrix(2.329949,0,0,2.329949,-4068.391673,-2697.122448)">
            <circle cx="2498.876" cy="1689.824" r="526.439" style="fill:none;stroke:rgb(255,0,0);stroke-width:1.79px;"/>
        </g>
        <g transform="matrix(1,0,0,1,281.579411,-1786.961668)">
            <g transform="matrix(1.105124,0,0,1.105124,-155.089563,-425.446774)">
                <circle cx="1472.568" cy="4047.077" r="104.203" style="fill:none;stroke:rgb(255,0,0);stroke-width:3.77px;"/>
            </g>
            <g transform="matrix(1.036854,0,0,0.973443,-47.754923,111.90533)">
                <path d="M1665.354,4042.527C1665.354,4126.234 1601.551,4194.193 1522.964,4194.193L1409.052,4194.193C1330.465,4194.193 1266.662,4126.234 1266.662,4042.527C1266.662,3958.821 1330.465,3890.862 1409.052,3890.862L1522.964,3890.862C1601.551,3890.862 1665.354,3958.821 1665.354,4042.527Z" style="fill:none;stroke:rgb(0,255,0);stroke-width:4.14px;"/>
            </g>
            <g transform="matrix(2.883123,0,0,2.883123,-2529.724922,-7555.923026)">
                <circle cx="1333.477" cy="4024.456" r="8.193" style="fill:none;stroke:rgb(255,0,0);stroke-width:1.45px;"/>
            </g>
            <g transform="matrix(-2.883123,-0,0,-2.883123,5474.288691,15650.076526)">
                <circle cx="1333.477" cy="4024.456" r="8.193" style="fill:none;stroke:rgb(255,0,0);stroke-width:1.45px;"/>
            </g>
        </g>
        <g transform="matrix(0.992523,0,0,0.983339,511.645603,-236.21826)">
            <path d="M615,1201.111L615,1801.668C615,1867.959 561.678,1921.78 496,1921.78C430.322,1921.78 377,1867.959 377,1801.668L377,1201.111C377,1134.82 430.322,1081 496,1081C561.678,1081 615,1134.82 615,1201.111Z" style="fill:none;stroke:rgb(255,0,0);stroke-width:4.22px;"/>
        </g>
        <g transform="matrix(0.992523,0,0,0.983339,2011.645603,-236.21826)">
            <path d="M615,1201.111L615,1801.668C615,1867.959 561.678,1921.78 496,1921.78C430.322,1921.78 377,1867.959 377,1801.668L377,1201.111C377,1134.82 430.322,1081 496,1081C561.678,1081 615,1134.82 615,1201.111Z" style="fill:none;stroke:rgb(255,0,0);stroke-width:4.22px;"/>
        </g>
    </g>
</svg>
